PathFileType	4	(X/Y/Z)	s05c0101.trc
DataRate	CameraRate	NumFrames	NumMarkers	Units	OrigDataRate	OrigDataStartFrame	OrigNumFrames
200	200	6	50	mm	200	500	2000
Frame#	Time	racr			lacr			c7			jug			rlel			rdr			llel			ldr			s2			lic			ric			lasi			rasi			rpsi			lpsi			rgt			lgt			rth1			rth2			rth3			rth4			rlfc			rmfc			rsh1			rsh2			rsh3			rsh4			rlmal			rmmal			rcal			rtoe			rmt5			lth1			lth2			lth4			lth3			llfc			lmfc			lsh1			lsh2			lsh3			lsh4			llmal			lmmal			lcal			ltoe			lmt5			SBIKE			LBIKE			RBIKE			
		X1	Y1	Z1	X2	Y2	Z2	X3	Y3	Z3	X4	Y4	Z4	X5	Y5	Z5	X6	Y6	Z6	X7	Y7	Z7	X8	Y8	Z8	X9	Y9	Z9	X10	Y10	Z10	X11	Y11	Z11	X12	Y12	Z12	X13	Y13	Z13	X14	Y14	Z14	X15	Y15	Z15	X16	Y16	Z16	X17	Y17	Z17	X18	Y18	Z18	X19	Y19	Z19	X20	Y20	Z20	X21	Y21	Z21	X22	Y22	Z22	X23	Y23	Z23	X24	Y24	Z24	X25	Y25	Z25	X26	Y26	Z26	X27	Y27	Z27	X28	Y28	Z28	X29	Y29	Z29	X30	Y30	Z30	X31	Y31	Z31	X32	Y32	Z32	X33	Y33	Z33	X34	Y34	Z34	X35	Y35	Z35	X36	Y36	Z36	X37	Y37	Z37	X38	Y38	Z38	X39	Y39	Z39	X40	Y40	Z40	X41	Y41	Z41	X42	Y42	Z42	X43	Y43	Z43	X44	Y44	Z44	X45	Y45	Z45	X46	Y46	Z46	X47	Y47	Z47	X48	Y48	Z48	X49	Y49	Z49	X50	Y50	Z50	
500	2.5000	493.840446	1329.897785	-156.434865	477.186457	1357.363289	-417.193429	451.511009	1418.122697	-287.164332	434.699908	1253.206440	-291.258708	511.271994	1085.324735	-15.377606	696.448479	925.477372	-90.780499	452.597039	1085.074984	-536.206677	676.685836	939.324624	-480.293871	-90.152679	1182.735446	-251.658044	57.863500	1198.741236	-399.754653	60.630023	1187.801978	-114.811815	105.186658	1140.002473	-373.381360	93.997089	1127.676769	-147.232734	-50.677897	1228.185973	-212.974072	-50.954653	1234.702809	-295.733912	19.876568	1065.546257	-93.460115	-18.257877	1097.270809	-430.219415	118.186357	1006.808044	-85.895589	204.473515	984.099301	-87.433811	265.732043	920.849159	-92.962185	221.299026	1014.768966	-99.995943	377.471492	829.927933	-124.016290	358.854922	829.342236	-233.914937	284.417192	775.230757	-97.101584	232.183297	704.331733	-108.037029	154.608945	666.953141	-109.639848	252.134874	684.137816	-134.854195	54.415456	582.117373	-115.207957	77.110590	592.020192	-197.640327	-21.221812	600.984026	-160.237143	184.639683	387.777741	-160.435143	96.506196	439.104979	-94.377307	56.889885	975.335193	-455.972621	125.322601	923.177164	-459.699814	155.544513	943.572792	-449.095412	157.960585	838.681871	-460.727897	235.420610	713.003925	-431.942102	223.110743	697.999696	-326.205329	208.594251	586.999297	-461.067208	225.282996	502.248514	-448.031218	196.809399	418.026580	-447.091683	255.479218	503.452061	-423.849933	196.029974	297.789639	-438.181569	219.945608	323.568236	-361.372654	136.338070	260.200266	-396.306853	430.674472	226.388068	-405.508571	320.330841	206.402132	-467.687881	-265.247042	896.390553	-285.704264	-53.305624	79.041682	-475.087210	-53.265669	79.219641	-77.444322	
501	2.5050	493.280616	1329.509879	-156.502683	476.946576	1356.721086	-417.424584	451.155823	1417.795839	-287.372323	434.319277	1252.785819	-291.457653	511.183625	1085.045873	-15.382012	696.510593	925.549662	-90.889397	453.164072	1084.766259	-536.681376	676.982955	939.142381	-480.172205	-90.516061	1182.715336	-252.795061	57.960405	1198.307836	-400.767350	59.684207	1188.514397	-115.798762	105.139082	1139.420955	-374.246636	93.263504	1128.520259	-147.909811	-51.311339	1228.728696	-214.255061	-51.146737	1234.605551	-297.032279	19.431275	1066.881269	-93.758455	-18.958710	1096.477419	-430.445831	118.468283	1009.210463	-86.156646	204.992167	987.600010	-88.020717	266.978539	925.036920	-93.454940	221.426682	1018.320369	-100.832121	379.480011	834.991881	-124.683314	360.740729	834.069645	-234.833327	286.347532	780.367082	-97.986334	234.332861	709.323532	-108.623789	156.829686	671.738748	-110.096750	254.415223	688.965379	-135.218339	56.941898	586.638814	-115.372949	79.573665	596.480312	-197.758267	-19.078651	604.651675	-160.671998	188.901623	393.414768	-160.465137	100.303198	443.962135	-94.532947	55.132418	974.380786	-456.204581	122.979085	921.395228	-460.401942	153.447896	941.472129	-449.848071	154.598747	836.535435	-461.490369	230.717796	709.878384	-432.375078	218.672333	694.656800	-326.381925	203.925040	583.861459	-461.512663	220.934589	499.206269	-448.460572	192.766841	414.913483	-447.262982	251.090710	500.628589	-424.463900	192.853857	294.701498	-438.224963	216.140647	319.937087	-361.593252	133.112399	257.728168	-396.323713	427.043153	220.873340	-405.455907	316.587920	201.958939	-467.632548	-265.266034	896.383219	-285.725244	-53.296452	79.043952	-475.080558	-53.269279	79.220141	-77.447138	
502	2.5100	492.725377	1329.175810	-156.610519	476.570349	1356.172066	-417.531249	450.784092	1417.417483	-287.548702	433.894621	1252.401259	-291.571751	511.076080	1084.894965	-15.455039	696.575699	925.644548	-91.057791	453.684368	1084.545868	-537.190126	677.367335	938.912064	-480.134451	-90.766408	1182.735683	-254.109341	57.975204	1197.936534	-401.803130	58.716816	1189.337792	-116.794652	104.787470	1138.905138	-375.039068	92.533153	1129.426134	-148.626569	-51.927995	1228.991737	-215.708964	-51.352531	1234.410377	-298.402501	19.053498	1068.322209	-94.079341	-19.571402	1095.660000	-430.710985	118.833740	1011.869044	-86.286752	205.602086	991.122881	-88.642353	268.277912	929.357432	-93.967944	221.629094	1022.044775	-101.701088	381.553558	840.300954	-125.485848	362.613950	838.919115	-235.550821	288.380283	785.471946	-98.772489	236.595521	714.255825	-109.064076	159.171842	676.413780	-110.486422	256.735284	693.778600	-135.587356	59.590638	590.773552	-115.788661	82.213956	600.835604	-197.909087	-16.649388	608.248347	-160.879357	193.638021	399.621301	-159.606198	104.271448	448.771600	-94.612256	53.445340	973.409438	-456.378840	120.614794	919.664163	-461.066405	151.374891	939.380966	-450.587412	151.235969	834.462463	-462.219399	226.019685	706.924563	-432.760349	214.827504	692.183180	-326.759036	199.239483	580.839767	-461.918129	216.587650	496.299750	-448.911442	188.735976	411.956743	-447.526405	246.847281	497.729522	-424.952098	189.601604	291.871225	-438.266245	212.207062	316.438907	-361.788265	129.724005	255.642498	-396.311707	423.313643	215.285496	-405.337266	312.664720	197.479209	-467.604316	-265.246917	896.349535	-285.734724	-53.290411	79.069518	-475.072994	-53.254049	79.220631	-77.441971	
503	2.5150	492.042047	1328.955192	-156.805217	476.394987	1355.572645	-417.777928	450.436958	1417.116397	-287.846186	433.478308	1251.998349	-291.618520	510.923482	1084.770804	-15.627776	696.665108	925.801162	-91.229455	454.282642	1084.441457	-537.758300	677.833687	938.648460	-480.108638	-90.945329	1182.889323	-255.343507	57.941156	1197.475369	-402.759859	57.738701	1190.145031	-117.824314	104.651949	1138.551166	-375.883611	91.849781	1130.338721	-149.303121	-52.704022	1229.759272	-216.842095	-51.578865	1234.385683	-299.696400	18.646228	1069.800886	-94.328218	-20.249093	1094.956876	-430.993308	119.277321	1014.535352	-86.323136	206.224887	994.832325	-89.219540	269.526143	933.735179	-94.497354	221.761893	1025.848355	-102.488462	383.672961	845.629792	-126.067297	364.565361	842.743032	-235.469872	290.454059	790.533080	-99.460194	238.983460	719.039331	-109.492850	161.633934	681.012460	-110.845574	259.195131	698.632588	-135.921545	62.444771	594.897940	-116.106546	84.078369	604.937786	-198.331841	-13.927663	611.704076	-161.213831	197.711934	404.506794	-160.549630	108.520436	453.368447	-94.744589	51.806647	972.502301	-456.603473	118.370385	917.968282	-461.773907	149.374872	937.347157	-451.348459	147.985239	832.402155	-462.910689	221.355261	704.204503	-433.145909	210.762286	689.453368	-327.082956	194.591287	578.050703	-462.286338	212.252592	493.483245	-449.267518	184.692293	408.993126	-447.707427	242.565297	495.110400	-425.469937	186.267393	288.984871	-438.410108	208.156270	313.081286	-361.958540	126.323905	253.455077	-396.411115	419.339408	209.960428	-405.266306	308.558135	193.313473	-467.552202	-265.215117	896.381425	-285.782684	-53.311317	79.089145	-475.070786	-53.272156	79.253825	-77.435719	
504	2.5200	491.415818	1328.812544	-157.002571	476.184343	1355.018871	-417.974735	449.994698	1416.934337	-288.143089	432.929363	1251.791847	-291.726077	510.762884	1084.737452	-15.841743	696.739309	925.962139	-91.449021	455.239994	1084.521952	-538.954211	678.369111	938.288269	-480.165989	-91.147402	1182.954398	-256.905807	57.867638	1197.121901	-403.683773	56.776324	1191.143094	-118.831519	104.511193	1138.111977	-376.597951	91.137119	1131.366895	-150.122034	-53.931339	1230.329426	-217.238472	-51.904307	1234.375189	-301.097864	18.365222	1071.432963	-94.631061	-20.800342	1094.256633	-431.249395	119.650785	1017.325932	-86.490233	206.722681	998.543510	-89.743688	270.809941	938.155161	-94.951250	221.905776	1029.621077	-103.273760	385.815893	850.986234	-126.450839	366.353369	848.510437	-236.507815	292.515208	795.485266	-100.082404	241.379452	723.812406	-109.931310	164.195670	685.477951	-111.200589	261.707828	703.394532	-136.225603	65.466488	598.727006	-116.442261	88.784786	608.963908	-198.125220	-11.030770	614.861487	-161.521365	202.487921	409.523959	-161.022402	112.915278	457.789189	-94.863412	50.255251	971.634937	-456.865064	116.158252	916.283123	-462.447893	147.455797	935.291647	-452.087070	144.808300	830.358856	-463.502725	216.816084	701.468693	-433.440938	206.730498	686.793877	-327.285152	190.002897	575.311631	-462.568529	207.952756	490.894400	-449.532995	180.590381	406.247792	-447.871574	238.333703	492.567152	-425.856151	182.743881	286.370122	-438.445630	203.999636	309.871841	-362.105013	122.727671	251.645356	-396.352925	415.305389	204.690916	-405.151194	304.339516	189.220529	-467.460410	-265.231691	896.381744	-285.766412	-53.327456	79.095223	-475.083623	-53.257612	79.228388	-77.444640	
505	2.5250	490.702095	1328.804406	-157.200924	475.884443	1354.573606	-418.142261	449.550091	1416.802218	-288.378244	432.425373	1251.593823	-291.869463	510.485112	1084.810257	-16.039250	696.815033	926.168613	-91.701833	455.982153	1084.489482	-539.690393	678.969476	937.964448	-480.239008	-91.462345	1182.960301	-258.364526	57.856848	1196.944313	-404.760933	55.753395	1192.136525	-119.817974	104.486322	1137.823621	-377.366598	90.363377	1132.513569	-150.892982	-55.379045	1230.709860	-217.676974	-52.218462	1234.333088	-302.569206	18.001629	1073.092876	-94.983929	-21.344425	1093.509070	-431.582593	119.909038	1020.036209	-86.791862	207.195262	1002.226891	-90.245368	271.932940	942.624411	-95.272981	221.944591	1033.469467	-104.130880	387.504941	856.356652	-127.106745	368.271120	853.126836	-236.033338	294.607364	800.496619	-100.677405	243.872651	728.477953	-110.328041	166.881356	689.791858	-111.538169	264.300664	708.033888	-136.628001	68.713447	602.476166	-116.763778	91.993107	612.745324	-198.429206	-7.975756	617.710568	-161.776761	208.102113	415.249566	-160.544143	117.779537	462.340160	-94.827600	48.843078	970.702452	-457.126477	114.100363	914.630019	-463.141015	145.688088	933.306241	-452.807610	141.754088	828.403216	-464.043343	212.470307	698.781749	-433.702570	202.749964	684.264543	-327.328587	185.569315	572.698699	-462.801866	203.670095	488.287776	-449.802396	176.512891	403.705486	-448.000892	234.149067	490.045608	-426.156045	179.209446	283.872207	-438.399492	199.748528	306.818221	-362.228621	119.074757	249.970007	-396.207552	411.047205	199.544493	-405.144861	299.886880	185.361350	-467.401363	-265.148291	896.328350	-285.750298	-53.304152	79.100483	-475.075162	-53.263720	79.232547	-77.443931	
